<svg width="504" height="351" viewBox="85 70 504 351" fill="none" xmlns="http://www.w3.org/2000/svg">
<g clip-path="url(#clip0_2478_6670)">
<rect width="504" height="351" fill="#FBDF58"/>
<path fill-rule="evenodd" clip-rule="evenodd" d="M166.492 93.4694C169.113 87.9886 174.649 84.5 180.724 84.5C189.437 84.5 196.5 91.5632 196.5 100.276V121.873L153.525 120.582L166.492 93.4694ZM140.411 120.188L155.666 88.292C160.281 78.6422 170.027 72.5 180.724 72.5C196.064 72.5 208.5 84.9358 208.5 100.276V122.234L219.025 122.55C226.705 122.781 232.193 130.071 230.291 137.516L202.207 247.407C200.673 253.41 194.821 257.258 188.701 256.287L99.0797 242.074C92.0739 240.963 87.5555 234.05 89.3495 227.187L115.083 128.747C116.498 123.335 121.463 119.619 127.053 119.787L140.411 120.188ZM107.178 203.608C104.585 217.624 113.005 231.298 126.465 235.426L104.319 231.914C101.984 231.543 100.478 229.239 101.076 226.952L107.178 203.608ZM160.549 214H137V155H160.518C167.009 155 172.599 156.181 177.286 158.543C181.993 160.887 185.623 164.267 188.174 168.684C190.725 173.082 192 178.345 192 184.471C192 190.617 190.725 195.899 188.174 200.316C185.643 204.733 182.025 208.123 177.317 210.485C172.609 212.828 167.02 214 160.549 214ZM152.399 200.667H159.958C163.525 200.667 166.543 200.148 169.011 199.109C171.499 198.053 173.376 196.343 174.641 193.98C175.927 191.599 176.57 188.43 176.57 184.473C176.57 180.516 175.927 177.365 174.641 175.02C173.356 172.657 171.458 170.956 168.948 169.917C166.46 168.861 163.39 168.333 159.74 168.333H152.399V200.667Z" fill="white"/>
<path d="M261.736 175.636H251.864V198.079C251.864 199.204 251.615 200.21 251.118 201.098C250.621 201.974 249.934 202.66 249.058 203.158C248.182 203.655 247.176 203.903 246.04 203.903C244.915 203.903 243.909 203.655 243.021 203.158C242.145 202.66 241.459 201.974 240.962 201.098C240.465 200.21 240.216 199.204 240.216 198.079V175.636H230.344V198.932C230.344 201.702 230.995 204.099 232.297 206.123C233.611 208.135 235.446 209.692 237.801 210.792C240.157 211.881 242.903 212.426 246.04 212.426C249.153 212.426 251.887 211.881 254.243 210.792C256.598 209.692 258.433 208.135 259.747 206.123C261.073 204.099 261.736 201.702 261.736 198.932V175.636Z" fill="white"/>
<path d="M275.889 175.636V212H285.761V202.625L289.028 198.364L297.196 212H308.985L296.414 191.829L308.701 175.636H297.196L286.258 190.338H285.761V175.636H275.889Z" fill="white"/>
<path fill-rule="evenodd" clip-rule="evenodd" d="M330.538 212H319.885L331.887 175.636H345.382L357.385 212H346.731L344.63 205.04H332.639L330.538 212ZM338.776 185.65L342.4 197.653H334.869L338.492 185.65H338.776Z" fill="white"/>
<path d="M401.811 212V175.636H391.938V194.67H391.655L378.728 175.636H370.348V212H380.22V192.895H380.433L393.572 212H401.811Z" fill="white"/>
</g>
<defs>
<clipPath id="clip0_2478_6670">
<rect width="404" height="261" fill="white"/>
</clipPath>
</defs>
</svg>
